<svg width="400" height="400" viewBox="0 0 400 400" xmlns="http://www.w3.org/2000/svg">
  <style>
    .brand { font-family: 'Times New Roman', Times, serif; font-size: 38px; font-style: italic; font-weight: 700; fill: #8B2E2E; }
    .sub { font-family: 'Times New Roman', Times, serif; font-size: 11px; font-weight: 500; fill: #7a2828; letter-spacing: 4px; }
  </style>
  <circle cx="200" cy="200" r="175" fill="#F8F4EE"/>
  <circle cx="200" cy="200" r="170" fill="none" stroke="#C4973A" stroke-width="2.2"/>
  <circle cx="200" cy="200" r="162" fill="none" stroke="#C4973A" stroke-width="0.8"/>
  <polygon points="128,198 200,145 272,198" fill="#8B2E2E"/>
  <polygon points="128,198 200,145 200,198" fill="#7a2828"/>
  <rect x="148" y="197" width="104" height="72" fill="#F8F4EE" stroke="#C4973A" stroke-width="1.2"/>
  <rect x="181" y="212" width="26" height="26" fill="none" stroke="#C4973A" stroke-width="1.2"/>
  <line x1="194" y1="212" x2="194" y2="238" stroke="#C4973A" stroke-width="1.2"/>
  <line x1="181" y1="225" x2="207" y2="225" stroke="#C4973A" stroke-width="1.2"/>
  <path d="M200,140 C197,132 191,126 194,118 C197,110 207,113 206,121 C209,115 213,118 211,124 C214,120 216,125 212,131 Z" fill="#4A6741"/>
  <line x1="200" y1="140" x2="201" y2="126" stroke="#3d5535" stroke-width="1"/>
  <text x="200" y="310" text-anchor="middle" class="brand">Maison D'Awa</text>
  <line x1="105" y1="325" x2="172" y2="325" stroke="#C4973A" stroke-width="0.8"/>
  <polygon points="200,320 204,325 200,330 196,325" fill="#C4973A"/>
  <line x1="228" y1="325" x2="295" y2="325" stroke="#C4973A" stroke-width="0.8"/>
  <text x="200" y="348" text-anchor="middle" class="sub">JUS NATURELS</text>
</svg>